<svg width="104" height="49" viewBox="0 0 104 49" fill="none" xmlns="http://www.w3.org/2000/svg">
<path d="M0.0480001 25.344C0.0480001 20.9067 0.965333 16.96 2.8 13.504C4.67733 10.0053 7.32267 7.296 10.736 5.376C14.1493 3.41333 18.0747 2.432 22.512 2.432C28.144 2.432 32.88 3.94667 36.72 6.976C40.56 9.96266 43.0347 14.0373 44.144 19.2H30.64C29.8293 17.4933 28.6987 16.192 27.248 15.296C25.84 14.4 24.1973 13.952 22.32 13.952C19.4187 13.952 17.0933 14.9973 15.344 17.088C13.6373 19.136 12.784 21.888 12.784 25.344C12.784 28.8427 13.6373 31.6373 15.344 33.728C17.0933 35.776 19.4187 36.8 22.32 36.8C24.1973 36.8 25.84 36.352 27.248 35.456C28.6987 34.56 29.8293 33.2587 30.64 31.552H44.144C43.0347 36.7147 40.56 40.8107 36.72 43.84C32.88 46.8267 28.144 48.32 22.512 48.32C18.0747 48.32 14.1493 47.36 10.736 45.44C7.32267 43.4773 4.67733 40.768 2.8 37.312C0.965333 33.8133 0.0480001 29.824 0.0480001 25.344ZM93.86 20.48L92.26 27.776H99.684V39.168H89.828L87.972 48H76.26L78.116 39.168H68.324L66.468 48H54.82L56.676 39.168H47.46V27.776H59.108L60.708 20.48H51.684V9.088H63.14L64.932 0.639999H76.58L74.788 9.088H84.58L86.372 0.639999H98.084L96.292 9.088H103.908V20.48H93.86ZM82.148 20.48H72.356L70.756 27.776H80.548L82.148 20.48Z" fill="#F494E7"/>
</svg>
